<svg width="28" height="30" viewBox="0 0 28 30" fill="none" xmlns="http://www.w3.org/2000/svg">
<path d="M22.5983 13.3125H12.0244V14.0625L12.2006 14.4375L13.0818 15.375L13.7867 15.75L14.1392 16.3125L13.9629 17.0625L12.7293 17.625L12.0244 18.9375L11.8481 22.875L12.3768 27.1875L12.7293 28.5L13.4342 29.25C13.6105 29.3125 14.0334 29.4375 14.3154 29.4375C14.6678 29.4375 16.2539 29.625 16.6064 29.625H18.5449H19.7786L19.4261 28.875C19.3086 28.5625 19.0736 27.825 19.0736 27.375C19.0736 26.925 18.9561 25.6875 18.8974 25.125V22.3125C18.8974 22.0125 19.2499 19.8125 19.4261 18.75V18.1875C19.4261 18 19.9548 18 20.131 17.8125C20.3073 17.625 20.836 17.625 21.0122 17.625C21.1884 17.625 21.7171 17.4375 21.8933 17.4375C22.0696 17.4375 21.7171 17.25 21.5409 17.0625C21.3646 16.875 21.5409 16.875 21.5409 16.6875C21.5409 16.5 21.5409 16.125 21.3646 15.9375C21.2237 15.7875 21.6584 15.5 21.8933 15.375C22.0696 15.3125 22.422 15.15 22.422 15C22.422 14.85 22.7745 14.6875 22.9507 14.625L23.3032 14.0625V13.5L22.5983 13.3125Z" fill="#FDC040"/>
<path d="M2.52832 23.0973C2.52832 24.0366 3.24652 24.8007 4.12927 24.8007C5.01208 24.8007 5.73028 24.0366 5.73028 23.0973C5.73028 22.1581 5.01208 21.394 4.12927 21.394C3.24652 21.394 2.52832 22.1581 2.52832 23.0973ZM4.90425 23.0973C4.90425 23.552 4.55663 23.9218 4.12933 23.9218C3.70202 23.9218 3.35446 23.552 3.35446 23.0973C3.35446 22.6427 3.70208 22.2729 4.12933 22.2729C4.55658 22.2729 4.90425 22.6428 4.90425 23.0973Z" fill="#3BB77E"/>
<path d="M6.1645 20.7492C6.85951 20.7492 7.42499 20.1477 7.42499 19.4082C7.42499 18.6688 6.85951 18.0672 6.1645 18.0672C5.46948 18.0672 4.90405 18.6688 4.90405 19.4082C4.90405 20.1477 5.46948 20.7492 6.1645 20.7492ZM6.1645 18.946C6.40406 18.946 6.59891 19.1533 6.59891 19.4081C6.59891 19.663 6.40406 19.8703 6.1645 19.8703C5.92499 19.8703 5.73014 19.663 5.73014 19.4081C5.73014 19.1533 5.92504 18.946 6.1645 18.946Z" fill="#3BB77E"/>
<path d="M10.5601 26.249C10.5601 25.5096 9.99457 24.908 9.29956 24.908C8.60455 24.908 8.03906 25.5096 8.03906 26.249C8.03906 26.9885 8.60455 27.5901 9.29956 27.5901C9.99457 27.5901 10.5601 26.9885 10.5601 26.249ZM8.8652 26.249C8.8652 25.9942 9.06005 25.7869 9.29961 25.7869C9.53918 25.7869 9.73402 25.9942 9.73402 26.249C9.73402 26.5038 9.53918 26.7112 9.29961 26.7112C9.06005 26.7112 8.8652 26.5038 8.8652 26.249Z" fill="#3BB77E"/>
<path d="M27.1798 18.8348C27.0608 17.9143 26.3134 17.2201 25.4412 17.2201H25.1486L25.4305 16.4401C25.5124 16.2136 25.4062 15.9593 25.1932 15.8722C24.9802 15.785 24.7413 15.8982 24.6595 16.1246L24.2636 17.2201H22.5447C22.4865 17.1904 22.4276 17.1625 22.3676 17.1387C21.9382 16.9684 21.7205 16.7031 21.7205 16.3505C21.7205 16.0218 22.2427 15.7552 22.4676 15.6557C23.1349 15.3594 23.6132 14.7328 23.7471 13.9792C24.0243 12.4143 24.1502 10.7399 24.2006 9.88055C24.2263 9.4343 24.1314 8.99771 23.9261 8.61803C22.8478 6.62326 20.8945 5.265 20.2412 4.84922V3.44391H20.2627C20.4909 3.44391 20.6758 3.24715 20.6758 3.00445V1.42424C20.6758 0.638906 20.0752 0 19.3371 0H16.0659C15.3278 0 14.7273 0.638906 14.7273 1.42424V3.00445C14.7273 3.24715 14.9121 3.44391 15.1403 3.44391H15.1619V4.84904C14.7403 5.11734 13.7771 5.77869 12.8572 6.74982V6.4415C13.3276 6.17068 13.6479 5.64088 13.6479 5.03291C13.6479 4.15043 12.9731 3.43254 12.1437 3.43254H5.61735C4.78791 3.43254 4.11316 4.15049 4.11316 5.03291C4.11316 5.641 4.43363 6.17092 4.90428 6.44168V7.78623C4.33891 8.13715 2.80299 9.18023 1.44998 10.9095C1.20689 11.2211 1.05197 11.5991 1.00196 12.003C0.934719 12.5465 0.833936 13.4338 0.735798 14.5743C0.71498 14.816 0.88229 15.0299 1.10946 15.052C1.12224 15.0533 1.13496 15.0539 1.14757 15.0539C1.35867 15.0539 1.53881 14.8826 1.55841 14.6545C1.65534 13.5283 1.75464 12.6533 1.82094 12.1178C1.84253 11.9435 1.89727 11.7778 1.98054 11.6296H11.3409C11.4137 12.3606 11.5155 13.1843 11.656 13.9789C11.7891 14.7325 12.2675 15.3594 12.9359 15.6558C13.1602 15.7551 13.6821 16.0216 13.6821 16.3504C13.6821 16.7033 13.4646 16.9685 13.0354 17.1387C12.2646 17.445 11.7212 18.2005 11.651 19.0634C11.4884 21.0537 11.3677 24.9052 12.3867 28.3368C12.4725 28.6259 12.6063 28.8872 12.7768 29.1128C12.6975 29.118 12.618 29.1212 12.5382 29.1212H5.22249C3.22556 29.1212 1.54674 27.4644 1.40047 25.3495C1.21157 22.6177 1.22065 19.6053 1.42756 16.396C1.44315 16.1538 1.27132 15.9441 1.04376 15.9275C0.816368 15.9107 0.618989 16.0937 0.603404 16.3358C0.393853 19.5865 0.384821 22.6408 0.576638 25.4139C0.663102 26.6648 1.18734 27.8237 2.05274 28.6774C2.91738 29.5303 4.04311 30 5.22249 30H12.5383C12.9374 30 13.3325 29.9461 13.7152 29.8402C13.9685 29.9436 14.2427 29.9997 14.5275 29.9997L25.4412 30C26.3134 30 27.0608 29.3058 27.1798 28.3852C27.5892 25.2166 27.5892 22.0035 27.1798 18.8348V18.8348ZM26.6222 25.2708C26.2932 25.4849 25.9189 25.5976 25.5287 25.5976C24.3711 25.5976 23.4294 24.5958 23.4294 23.3646C23.4294 22.133 24.3712 21.131 25.5287 21.131C25.9083 21.131 26.2732 21.2376 26.5951 21.4403C26.6712 22.7158 26.6805 23.9946 26.6222 25.2708V25.2708ZM23.3761 9.82623C23.3367 10.4978 23.2501 11.6791 23.0791 12.9028H12.3243C12.1536 11.6803 12.0663 10.4984 12.0265 9.82676C12.0107 9.55254 12.0682 9.28629 12.193 9.05602C12.2434 8.96279 12.2963 8.87109 12.3509 8.78074H23.052C23.1067 8.87109 23.1596 8.96285 23.21 9.05607C23.3345 9.28623 23.3918 9.55272 23.3761 9.82623V9.82623ZM5.73036 6.63334H12.0311V7.60418H5.73036V6.63334ZM15.5533 1.42424C15.5533 1.12354 15.7833 0.878906 16.0659 0.878906H19.3371C19.6197 0.878906 19.8497 1.12354 19.8497 1.42424V2.565H15.5533V1.42424ZM19.4151 3.44391V4.66377H15.988V3.44391H19.4151ZM15.6839 5.54268H19.7192C20.0679 5.75941 21.3785 6.61898 22.4272 7.90189H12.9757C14.0244 6.61875 15.3355 5.75912 15.6839 5.54268ZM5.61735 4.31145H12.1437C12.5176 4.31145 12.8219 4.63512 12.8219 5.03291C12.8219 5.43059 12.5179 5.75408 12.1442 5.75438H5.6168C5.24308 5.75408 4.93919 5.43053 4.93919 5.03291C4.93919 4.63512 5.24341 4.31145 5.61735 4.31145V4.31145ZM2.69703 10.7507C3.88902 9.45053 5.09786 8.67937 5.42356 8.4832H11.5523C11.5271 8.52773 11.5017 8.57215 11.4773 8.61732C11.2715 8.99678 11.1763 9.43354 11.202 9.88131C11.216 10.1163 11.2357 10.4127 11.2624 10.7507H2.69703ZM25.4412 29.1211H20.8756V29.1208H20.586C20.1268 29.1179 19.7341 28.7513 19.6713 28.2656C19.6063 27.7618 19.5516 27.2549 19.5087 26.7588C19.4878 26.5171 19.2868 26.3389 19.0596 26.3614C18.8325 26.3836 18.6653 26.5975 18.6861 26.8392C18.7301 27.3483 18.7863 27.8684 18.8529 28.3852C18.8876 28.6536 18.976 28.9025 19.1051 29.1207H14.5275C13.9044 29.1207 13.3606 28.6993 13.1745 28.072C12.1986 24.7853 12.3167 21.0647 12.474 19.1392C12.5169 18.6124 12.8507 18.1503 13.3242 17.9621C14.0766 17.6636 14.5082 17.0762 14.5082 16.3504C14.5082 15.9167 14.2905 15.3033 13.2535 14.8444C12.8431 14.6624 12.5494 14.2781 12.4679 13.8164C12.4658 13.8049 12.4638 13.7932 12.4619 13.7817H22.9413C22.9393 13.7931 22.9373 13.8046 22.9353 13.8161C22.8532 14.278 22.5595 14.6624 22.1499 14.8443C21.1121 15.3036 20.8943 15.9168 20.8943 16.3504C20.8943 16.6719 20.9793 16.966 21.1391 17.2201H20.5914C19.7192 17.2201 18.9718 17.9143 18.8528 18.8348C18.5862 20.8945 18.4926 22.9932 18.5745 25.0725C18.5841 25.315 18.7788 25.503 19.0044 25.4931C19.2324 25.483 19.4095 25.2782 19.3999 25.0357C19.3201 23.0087 19.4113 20.9627 19.6712 18.9546C19.7343 18.4669 20.1299 18.099 20.5915 18.099H25.4412C25.9028 18.099 26.2983 18.4669 26.3615 18.9546C26.4251 19.4471 26.4774 19.941 26.5208 20.4355C26.2057 20.3146 25.8714 20.2521 25.5287 20.2521C23.9156 20.2521 22.6033 21.6483 22.6033 23.3646C22.6033 25.0805 23.9156 26.4765 25.5287 26.4765C25.8865 26.4765 26.2347 26.4086 26.5617 26.2771C26.5128 26.9413 26.4469 27.6044 26.3615 28.2654C26.2983 28.7532 25.9028 29.1211 25.4412 29.1211V29.1211Z" fill="#3BB77E"/>
</svg>
