<svg width="33" height="35" viewBox="0 0 33 35" fill="none" xmlns="http://www.w3.org/2000/svg">
<path d="M12.563 13.7812C12.388 13.9562 12.3443 14.875 12.3443 15.3125C12.3443 15.3854 12.5193 15.4875 13.2193 15.3125C14.0943 15.0937 13.6568 15.0938 14.0943 14.6562C14.5318 14.2188 14.313 14.6562 15.188 14.875C16.063 15.0938 15.6255 15.3125 16.063 15.5312C16.5005 15.75 16.5005 15.5312 16.7193 15.5312C16.938 15.5312 17.3755 15.0938 17.813 14.875C18.2505 14.6562 18.2505 14.6562 18.4693 14.4375C18.6443 14.2625 18.688 14.0729 18.688 14C18.688 13.8542 18.6443 13.475 18.4693 13.125C18.2505 12.6875 18.0318 12.4688 17.813 12.25C17.5943 12.0312 17.1568 12.0312 16.7193 11.8125C16.2818 11.5937 15.8443 11.8125 15.4068 11.8125C14.9693 11.8125 14.0943 12.0312 13.8755 12.0312C13.6568 12.0312 13.2193 12.6875 13.0005 12.9062C12.7818 13.125 12.7818 13.5625 12.563 13.7812Z" fill="#FDC040"/>
<path d="M23.2818 9.40625C23.063 9.625 21.7505 14.4375 21.7505 14.6562C21.8964 14.8021 22.4068 15.1812 23.2818 15.5312C24.1568 15.75 23.7193 15.3125 24.3755 15.0938C25.0318 14.875 24.813 14.875 25.4693 14.875C26.1255 14.875 25.9068 14.875 26.563 15.3125C27.2193 15.75 27.0005 15.3125 27.438 15.3125C27.788 15.3125 28.0214 14.875 28.0943 14.6562L28.9693 12.9062L30.7193 8.96875L32.0318 3.9375L30.2818 3.71875C28.8235 3.64583 25.863 3.5 25.688 3.5C25.513 3.5 25.1776 4.66667 25.0318 5.25C24.5214 6.5625 23.4568 9.23125 23.2818 9.40625Z" fill="#FDC040"/>
<path d="M9.93804 29.75C7.31304 30.45 6.36513 28 6.21929 26.6875H5.78179C5.63595 26.6146 5.30052 26.4688 5.12552 26.4688C4.90677 26.4688 3.59427 26.25 3.37554 26.25C3.15682 26.25 2.06302 26.4688 2.06302 26.6875C2.06302 26.9062 1.18804 28 0.969293 28.2188C0.750543 28.4375 0.969293 30.1875 0.969293 30.4062C0.969293 30.625 1.40679 31.7188 1.40679 31.9375C1.40679 32.1562 1.62554 32.5938 1.84429 33.0312C2.06304 33.4688 2.28179 33.6875 2.71929 34.125C3.15679 34.5625 2.71929 34.3438 3.37554 34.3438C4.03179 34.3438 4.03179 34.3438 4.46929 34.125C4.90679 33.9062 5.56304 33.9062 5.78179 33.9062C6.00054 33.9062 6.21929 34.3438 6.65679 34.3438C7.09429 34.3438 7.09429 34.5625 7.53179 34.3438C7.96929 34.125 8.18804 34.125 8.62554 33.9062C9.06304 33.6875 9.50054 32.375 9.50054 32.1562C9.50054 31.9813 9.79221 30.4792 9.93804 29.75Z" fill="#FDC040"/>
<path d="M26.9883 5.43032L28.0977 5.06915L29.237 8.56944L28.1276 8.93032L26.9883 5.43032Z" fill="#3BB77E"/>
<path d="M25.2793 9.51424L26.3887 9.15308L27.5283 12.6528L26.4189 13.0142L25.2793 9.51424Z" fill="#3BB77E"/>
<path d="M5.60889 11.2158C5.48584 12.107 5.74589 13.0088 6.32524 13.6972L7.16748 14.7537V24.5H8.33415V15.6737L9.17696 16.2354C9.37321 16.3661 9.62842 16.3661 9.82467 16.2354L11.2508 15.2835L12.677 16.2342C12.8732 16.365 13.1284 16.365 13.3247 16.2342L14.7508 15.2835L16.177 16.2342C16.3732 16.365 16.6284 16.365 16.8247 16.2342L18.2508 15.2835L19.677 16.2342C19.8732 16.365 20.1284 16.365 20.3247 16.2342L21.7508 15.2835L22.9175 16.0611V33.8333H10.0841V35H26.4175C28.0276 34.998 29.3321 33.6935 29.3341 32.0833V14.5833C29.3327 14.4552 29.2886 14.331 29.2088 14.2304L32.5798 5.256C33.0335 4.05031 32.8675 2.69907 32.1355 1.63922C31.4399 0.610978 30.2784 -0.00368616 29.0373 1.66348e-05C27.4554 0.0148278 26.0463 1.00319 25.4941 2.48573L24.5795 4.92047L23.5008 3.84181V1.75002C23.5008 1.42787 23.2396 1.16668 22.9175 1.16668H16.5008C16.1787 1.16668 15.9175 1.42787 15.9175 1.75002V2.75091C15.2581 2.15334 14.2635 2.11944 13.5648 2.67116V1.75002C13.5648 0.795264 12.7909 0.0210941 11.8359 0.0210941C10.8811 0.0210941 10.1069 0.795264 10.1069 1.75002V2.67173C9.78764 2.40712 9.38574 2.26243 8.97103 2.26328C8.48966 2.26214 8.02824 2.4564 7.69242 2.8019C7.00057 3.51483 6.9963 4.64731 7.68245 5.36566L8.22563 5.9262C8.02795 6.01678 7.84851 6.14268 7.69613 6.29762L7.69242 6.2999L7.68673 6.30588C7.55086 6.44545 7.43835 6.6061 7.35404 6.78184L6.68925 5.55393L5.663 6.10935L7.17147 8.89357C7.10396 8.93202 7.03617 8.96934 6.97209 9.0132C6.94816 9.02944 6.92708 9.04823 6.90373 9.06447L4.64644 6.98435L3.85547 7.84226L6.09766 9.90956C5.84017 10.3035 5.67326 10.7495 5.60889 11.2158ZM17.927 14.098L16.5008 15.0499L15.0747 14.0991C14.8784 13.9684 14.6232 13.9684 14.427 14.0991L13.0142 15.0414C13.0108 14.983 13.0008 14.9323 13.0008 14.8762C12.9971 13.5941 13.9225 12.4978 15.1869 12.2865C16.4515 12.0748 17.6831 12.8103 18.0967 14.0239C18.0366 14.0396 17.9794 14.0644 17.927 14.098ZM19.4175 14.6603L19.4064 14.6528C19.3363 13.4267 18.6758 12.3107 17.6344 11.6593C16.5934 11.0079 15.3008 10.9019 14.1675 11.375V7.58335H19.4175V14.6603ZM28.1675 32.0833C28.1675 33.0498 27.3839 33.8333 26.4175 33.8333H24.0841V16.0622L25.2508 15.2835L26.677 16.2342C26.8732 16.365 27.1284 16.365 27.3247 16.2342L28.1675 15.6737V32.0833ZM26.5861 2.89561C26.9663 1.86737 27.941 1.18007 29.0373 1.16668C29.8947 1.16497 30.6965 1.59023 31.1764 2.30059C31.6914 3.04657 31.8076 3.99762 31.4877 4.84584L27.8758 14.4666L27.0008 15.0499L25.5747 14.0991C25.3784 13.9684 25.1232 13.9684 24.927 14.0991L23.5008 15.0499L22.3173 14.2609L26.5861 2.89561ZM24.1291 6.11989L21.0333 14.3606L20.5841 14.6603V7.24155L22.9175 4.90822L24.1291 6.11989ZM17.0841 2.33335H22.3341V3.50002H17.0841V2.33335ZM16.7423 4.66668H21.5093L19.7593 6.41668H14.9923L16.7423 4.66668ZM8.52498 3.62022C8.64205 3.49945 8.80298 3.43109 8.97103 3.43109C9.13936 3.43137 9.30029 3.49945 9.41736 3.62022L10.2738 4.49521C10.4402 4.66497 10.6928 4.71653 10.9124 4.62624C11.132 4.53566 11.275 4.3209 11.2736 4.08335V1.75002C11.2642 1.54294 11.3693 1.34755 11.547 1.24131C11.7251 1.13478 11.9469 1.13478 12.1247 1.24131C12.3027 1.34755 12.4078 1.54294 12.3981 1.75002V4.08335C12.3984 4.32004 12.5417 4.5331 12.761 4.62253C12.98 4.71226 13.2315 4.66042 13.3976 4.4918L14.2566 3.6168C14.5027 3.37441 14.8975 3.37441 15.1433 3.6168C15.3968 3.87628 15.3968 4.29042 15.1433 4.5499L13.4249 6.2999L13.4423 6.31756L13.1717 6.58815C13.1247 6.63657 13.0868 6.69297 13.0592 6.75449C13.0509 6.77244 13.0464 6.79067 13.0398 6.80918C13.0225 6.85903 13.0119 6.91086 13.0085 6.96327C13.0085 6.97609 13.0014 6.98663 13.0014 6.99945V12.1449C12.8687 12.2719 12.7453 12.4084 12.6328 12.5534L11.5308 10.2083C11.1241 9.39915 10.3889 8.80385 9.51249 8.57513C9.30855 8.52244 9.09949 8.49054 8.889 8.48057L8.73946 8.3054C8.62296 8.17181 8.53495 8.06756 8.52071 8.05304C8.37004 7.89524 8.30481 7.67421 8.34582 7.45973C8.36747 7.33783 8.42358 7.22503 8.50732 7.13417L8.51786 7.1242L8.53239 7.10854C8.74373 6.90146 9.071 6.87099 9.3171 7.03505C9.56462 7.20054 9.89673 7.15297 10.0881 6.92511C10.2795 6.69696 10.2684 6.36171 10.0625 6.14666L8.52071 4.55531C8.27034 4.29327 8.27234 3.87998 8.52498 3.62022ZM6.76501 11.375C6.84106 10.8096 7.15409 10.3032 7.62606 9.98248C8.09403 9.66603 8.67537 9.56577 9.22253 9.70733C9.76941 9.84918 10.2291 10.2192 10.4843 10.7233L11.9711 13.8904C11.9344 14.0268 11.9054 14.1652 11.8843 14.3051L11.5769 14.0997C11.381 13.969 11.1255 13.969 10.9295 14.0997L9.50081 15.0499L8.20711 14.1866L8.08207 14.0299L9.58598 12.8672L8.87191 11.9444L7.35547 13.1173L7.22587 12.9558C6.85474 12.5183 6.68726 11.9435 6.76501 11.375Z" fill="#3BB77E"/>
<path d="M1.41256 33.5451C1.85575 34.4391 2.76892 35.0034 3.76668 35C4.17542 34.9994 4.57817 34.9043 4.94389 34.7223L5.41699 34.4856L5.89067 34.7223C6.2561 34.9043 6.65885 34.9994 7.0673 35C8.06535 35.0034 8.97823 34.4391 9.42171 33.5451L9.62508 33.1369C10.3081 31.7663 10.6647 30.2564 10.667 28.7252C10.665 27.0367 9.29696 25.6686 7.60848 25.6666C7.03939 25.6684 6.48197 25.8299 6.00033 26.1332V25.6666C6.00033 24.3781 4.95557 23.3333 3.66699 23.3333V24.5C4.31128 24.5 4.83366 25.0224 4.83366 25.6666V26.1332C4.35201 25.8299 3.7946 25.6684 3.2255 25.6666C1.53703 25.6686 0.168986 27.0367 0.166992 28.7252C0.168986 30.2567 0.525594 31.7672 1.2089 33.138L1.41256 33.5451ZM3.2255 26.8333C3.72738 26.8319 4.20902 27.0316 4.56307 27.3876L5.00456 27.8291C5.23242 28.0567 5.60156 28.0567 5.82943 27.8291L6.27091 27.3876C6.81209 26.8464 7.62557 26.6846 8.33252 26.9774C9.03947 27.2702 9.50033 27.9601 9.50033 28.7252C9.4989 30.0758 9.18445 31.4077 8.58146 32.6165L8.37809 33.025C8.13057 33.522 7.62244 33.8353 7.0673 33.8333C6.84001 33.833 6.61584 33.78 6.41219 33.6786L5.6779 33.3112C5.51355 33.2292 5.32043 33.2292 5.15637 33.3112L4.42236 33.6786C4.21871 33.78 3.99426 33.833 3.76668 33.8333C3.21126 33.835 2.70284 33.5209 2.45589 33.023L2.25252 32.6148C1.64982 31.4066 1.33537 30.0753 1.33366 28.7252C1.33508 27.681 2.18132 26.8347 3.2255 26.8333Z" fill="#3BB77E"/>
</svg>
